<?xml version="1.0" encoding="UTF-8"?>
<svg id="Calque_2" data-name="Calque 2" xmlns="http://www.w3.org/2000/svg" viewBox="0 0 125.28 125.28">
  <defs>
    <style>
      .cls-1 {
        fill: #fff;
      }

      .cls-2 {
        fill: #554596;
      }
    </style>
  </defs>
  <g id="Calque_1-2" data-name="Calque 1">
    <g>
      <rect class="cls-1" x="0" width="125.28" height="125.28" rx="46.49" ry="46.49"/>
      <g>
        <path class="cls-2" d="M23.03,53.84c7.83-3.66,12.12-9.79,12.27-17.61-.02-3.31-.91-6.56-2.82-9.65-1.94-3.08-4.9-5.83-9.45-7.96,11.07-4.73,22.63,6.31,22.27,17.61.34,11.29-11.2,22.3-22.27,17.6h0Z"/>
        <path class="cls-2" d="M23.03,106.65c18.84-5.35,27.23-26.59,15.58-42.25-3.52-4.73-8.75-8.44-15.58-10.57,7.19-2.26,15.48.13,21.22,5.09,9.39,7.81,12.24,22.09,7.13,33.11-4.57,10.58-17.07,18.1-28.35,14.62h0Z"/>
        <path class="cls-2" d="M18.71,93.45c5.52-3.53,7.78-7.65,7.96-13.2-.2-5.56-2.44-9.65-7.96-13.2,8.48-4.72,18.25,4.02,17.95,13.2.28,9.18-9.48,17.89-17.95,13.2h0Z"/>
        <path class="cls-2" d="M63.78,106.65c33.95-6.13,49.71-44.43,27.57-71.54-6.61-7.96-16.27-13.56-27.57-15.67,5.66-1.09,11.72-.65,17.47,1.11,11.76,3.57,21.62,12.82,26.5,24.17,2.49,5.69,3.7,12.11,3.81,18.32,0,0-.25,4.7-.25,4.7-.22,1.56-.45,3.11-.7,4.66,0,0-1.19,4.56-1.19,4.56-.54,1.47-1.06,2.96-1.65,4.4-7.05,16.82-25.84,28.65-43.97,25.28h0Z"/>
        <path class="cls-2" d="M63.78,84.85c10.06-3.72,16.29-11.8,16.39-21.8-.13-10-6.33-18.05-16.39-21.8,2.83-1.09,6.07-1.23,9.22-.57,14.02,2.94,21.08,19.81,14.96,32.42-3.92,8.92-14.75,15.25-24.17,11.76h0Z"/>
      </g>
    </g>
  </g>
</svg>